#!OML:ASF E:\CV Data\Top Level 1\Subject 1\Session 1\player.ASF
:FULLY-SPECIFIED
:DEGREES
1216
root 10.5689 17.2407 -3.61033 194.841 -101.537 -188.94
lowerback 12.0291 3.42554 3.27858
upperback 2.19011 5.02316 3.99008
thorax -4.51018 2.39704 1.54836
lowerneck -18.4106 7.46201 -2.56084
upperneck 18.5417 10.3493 2.69791
head 8.51132 4.96914 2.59521
rclavicle 1.70955e-014 3.33958e-014
rhumerus -22.4421 14.1183 -93.1433
rradius 47.0221
rwrist -26.4505
rhand -18.888 -6.458
rfingers 7.12502
rthumb 7.41322 -36.3081
lclavicle 1.70955e-014 3.33958e-014
lhumerus -19.1574 16.6992 67.4877
lradius 41.697
lwrist 6.4097
lhand -19.8026 30.6777
lfingers 7.12502
lthumb 6.53038 60.557
rfemur -18.2151 2.13683 17.7065
rtibia 37.8917
rfoot -23.3227 -8.95672
rtoes -4.8332
lfemur -28.0086 1.03803 0.887187
ltibia 33.6572
lfoot -5.97794 -8.91395
ltoes -6.70363
1217
root 10.5806 17.2437 -3.6075 195.527 -100.622 -189.514
lowerback 12.0299 3.41272 3.24002
upperback 2.19774 5.00079 4.04686
thorax -4.51099 2.38563 1.63281
lowerneck -18.3612 7.63252 -2.46968
upperneck 18.5246 10.5983 2.50735
head 8.50603 5.07221 2.54459
rclavicle 5.80451e-014 3.33958e-014
rhumerus -22.8071 14.7407 -93.5217
rradius 47.2838
rwrist -27.0261
rhand -19.0144 -6.65578
rfingers 7.12502
rthumb 7.29126 -36.5102
lclavicle 5.80451e-014 3.33958e-014
lhumerus -18.8389 16.4899 68.9654
lradius 41.7268
lwrist 6.7642
lhand -19.9476 30.6946
lfingers 7.12502
lthumb 6.39037 60.5782
rfemur -18.5559 2.55322 17.5624
rtibia 37.9165
rfoot -23.2239 -8.4903
rtoes -4.79723
lfemur -27.8367 0.983842 0.633446
ltibia 33.2467
lfoot -6.67042 -9.36901
ltoes -7.8323
1218
root 10.5915 17.2461 -3.60139 196.244 -99.7553 -190.109
lowerback 12.0139 3.37911 3.19709
upperback 2.20271 4.94957 4.0989
thorax -4.50479 2.36031 1.72014
lowerneck -18.3537 7.78272 -2.37977
upperneck 18.526 10.8163 2.33953
head 8.51454 5.16233 2.50099
rclavicle 5.84427e-014 2.38542e-014
rhumerus -23.1383 15.3695 -93.8941
rradius 47.5386
rwrist -27.6148
rhand -19.0777 -6.82482
rfingers 7.12502
rthumb 7.23012 -36.6813
lclavicle 5.84427e-014 2.38542e-014
lhumerus -18.5138 16.1536 70.4454
lradius 41.7255
lwrist 7.19436
lhand -20.1056 30.7675
lfingers 7.12502
lthumb 6.23786 60.6557
rfemur -18.8982 2.89948 17.4036
rtibia 37.9417
rfoot -23.1371 -8.00371
rtoes -4.76702
lfemur -27.6973 0.938583 0.367851
ltibia 32.8184
lfoot -7.31335 -9.91509
ltoes -8.91402
1219
root 10.601 17.2485 -3.59084 196.998 -98.9229 -190.742
lowerback 11.9778 3.32822 3.1784
upperback 2.21453 4.87616 4.13267
thorax -4.47616 2.32398 1.77971
lowerneck -18.3968 7.90937 -2.27732
upperneck 18.5339 10.9944 2.19674
head 8.53495 5.23679 2.46208
rclavicle 6.71892e-014 5.725e-014
rhumerus -23.4222 15.9891 -94.2647
rradius 47.7828
rwrist -28.2067
rhand -19.0989 -6.98002
rfingers 7.12502
rthumb 7.20964 -36.8372
lclavicle 6.71892e-014 5.725e-014
lhumerus -18.1633 15.6732 71.9227
lradius 41.6908
lwrist 7.71651
lhand -20.3338 30.8735
lfingers 7.12502
lthumb 6.01758 60.768
rfemur -19.2269 3.17484 17.2261
rtibia 37.9629
rfoot -23.0611 -7.48163
rtoes -4.75114
lfemur -27.568 0.854611 0.0920853
ltibia 32.38
lfoot -7.91103 -10.5105
ltoes -10.1413
1220
root 10.6099 17.2506 -3.57641 197.8 -98.1637 -191.41
lowerback 11.9226 3.23956 3.19929
upperback 2.22417 4.75614 4.15178
thorax -4.43384 2.26429 1.81008
lowerneck -18.4644 8.01405 -2.18218
upperneck 18.5287 11.14 2.07554
head 8.55466 5.29799 2.42843
rclavicle -5.04913e-014 -1.90833e-014
rhumerus -23.6587 16.6254 -94.6397
rradius 48.0158
rwrist -28.7997
rhand -19.0986 -7.13658
rfingers 7.12502
rthumb 7.21002 -36.9938
lclavicle -5.04913e-014 -1.90833e-014
lhumerus -17.7887 15.0814 73.3657
lradius 41.6219
lwrist 8.29691
lhand -20.5427 31.0484
lfingers 7.12502
lthumb 5.81588 60.9485
rfemur -19.5575 3.35166 17.0444
rtibia 37.9816
rfoot -22.9919 -6.93555
rtoes -4.75001
lfemur -27.4801 0.676497 -0.163353
ltibia 31.9353
lfoot -8.389 -11.1743
ltoes -11.1664
